<svg xmlns="http://www.w3.org/2000/svg" xmlns:xlink="http://www.w3.org/1999/xlink" contentStyleType="text/css" data-diagram-type="CLASS" height="956px" preserveAspectRatio="none" style="width:1168px;height:956px;background:#FFFFFF;" version="1.1" viewBox="0 0 1168 956" width="1168px" zoomAndPan="magnify"><defs/><g><!--class USERS--><g class="entity" data-entity="USERS" data-source-line="5" data-uid="ent0002" id="entity_USERS"><rect fill="#F1F1F1" height="145.7813" rx="2.5" ry="2.5" style="stroke:#181818;stroke-width:0.5;" width="174.7295" x="377.57" y="7"/><ellipse cx="437.3879" cy="23" fill="#ADD1B2" rx="11" ry="11" style="stroke:#181818;stroke-width:1;"/><path d="M441.4972,29 L433.7785,29 L433.7785,16.6094 L441.4972,16.6094 L441.4972,18.7656 L436.2316,18.7656 L436.2316,21.4375 L440.9972,21.4375 L440.9972,23.5938 L436.2316,23.5938 L436.2316,26.8438 L441.4972,26.8438 L441.4972,29 Z " fill="#000000"/><text fill="#000000" font-family="sans-serif" font-size="14" lengthAdjust="spacing" textLength="46.5938" x="457.8879" y="27.8467">USERS</text><line style="stroke:#181818;stroke-width:0.5;" x1="378.57" x2="551.2995" y1="39" y2="39"/><text fill="#000000" font-family="sans-serif" font-size="14" lengthAdjust="spacing" text-decoration="underline" textLength="19.7764" x="383.57" y="55.9951">_id</text><text fill="#000000" font-family="sans-serif" font-size="14" lengthAdjust="spacing" textLength="67.7783" x="407.7966" y="55.9951">: ObjectId</text><text fill="#000000" font-family="sans-serif" font-size="14" lengthAdjust="spacing" textLength="135.0166" x="383.57" y="72.292">email : String &#171;UK&#187;</text><text fill="#000000" font-family="sans-serif" font-size="14" lengthAdjust="spacing" textLength="162.7295" x="383.57" y="88.5889">password_hash : String</text><text fill="#000000" font-family="sans-serif" font-size="14" lengthAdjust="spacing" textLength="124.209" x="383.57" y="104.8857">user_type : String</text><text fill="#000000" font-family="sans-serif" font-size="14" lengthAdjust="spacing" textLength="156.4746" x="383.57" y="121.1826">created_at : DateTime</text><text fill="#000000" font-family="sans-serif" font-size="14" lengthAdjust="spacing" textLength="161.0547" x="383.57" y="137.4795">updated_at : DateTime</text><line style="stroke:#181818;stroke-width:0.5;" x1="378.57" x2="551.2995" y1="144.7813" y2="144.7813"/></g><!--class ADMIN_PROFILES--><g class="entity" data-entity="ADMIN_PROFILES" data-source-line="14" data-uid="ent0003" id="entity_ADMIN_PROFILES"><rect fill="#F1F1F1" height="129.4844" rx="2.5" ry="2.5" style="stroke:#181818;stroke-width:0.5;" width="178.626" x="40.62" y="253.52"/><ellipse cx="67.1781" cy="269.52" fill="#ADD1B2" rx="11" ry="11" style="stroke:#181818;stroke-width:1;"/><path d="M71.2874,275.52 L63.5687,275.52 L63.5687,263.1294 L71.2874,263.1294 L71.2874,265.2856 L66.0218,265.2856 L66.0218,267.9575 L70.7874,267.9575 L70.7874,270.1138 L66.0218,270.1138 L66.0218,273.3638 L71.2874,273.3638 L71.2874,275.52 Z " fill="#000000"/><text fill="#000000" font-family="sans-serif" font-size="14" lengthAdjust="spacing" textLength="120.9414" x="83.7465" y="274.3667">ADMIN_PROFILES</text><line style="stroke:#181818;stroke-width:0.5;" x1="41.62" x2="218.246" y1="285.52" y2="285.52"/><text fill="#000000" font-family="sans-serif" font-size="14" lengthAdjust="spacing" text-decoration="underline" textLength="19.7764" x="46.62" y="302.5151">_id</text><text fill="#000000" font-family="sans-serif" font-size="14" lengthAdjust="spacing" textLength="67.7783" x="70.8466" y="302.5151">: ObjectId</text><text fill="#000000" font-family="sans-serif" font-size="14" font-style="italic" lengthAdjust="spacing" textLength="50.3125" x="46.62" y="318.812">user_id</text><text fill="#000000" font-family="sans-serif" font-size="14" lengthAdjust="spacing" textLength="67.7783" x="101.3827" y="318.812">: ObjectId</text><text fill="#000000" font-family="sans-serif" font-size="14" lengthAdjust="spacing" textLength="166.626" x="46.62" y="335.1089">company_name : String</text><text fill="#000000" font-family="sans-serif" font-size="14" lengthAdjust="spacing" textLength="112.7451" x="46.62" y="351.4057">industry : String</text><text fill="#000000" font-family="sans-serif" font-size="14" lengthAdjust="spacing" textLength="156.4746" x="46.62" y="367.7026">created_at : DateTime</text><line style="stroke:#181818;stroke-width:0.5;" x1="41.62" x2="218.246" y1="375.0044" y2="375.0044"/></g><!--class CANDIDATE_PROFILES--><g class="entity" data-entity="CANDIDATE_PROFILES" data-source-line="22" data-uid="ent0004" id="entity_CANDIDATE_PROFILES"><rect fill="#F1F1F1" height="129.4844" rx="2.5" ry="2.5" style="stroke:#181818;stroke-width:0.5;" width="188.3926" x="254.74" y="253.52"/><ellipse cx="269.74" cy="269.52" fill="#ADD1B2" rx="11" ry="11" style="stroke:#181818;stroke-width:1;"/><path d="M273.8494,275.52 L266.1306,275.52 L266.1306,263.1294 L273.8494,263.1294 L273.8494,265.2856 L268.5838,265.2856 L268.5838,267.9575 L273.3494,267.9575 L273.3494,270.1138 L268.5838,270.1138 L268.5838,273.3638 L273.8494,273.3638 L273.8494,275.52 Z " fill="#000000"/><text fill="#000000" font-family="sans-serif" font-size="14" lengthAdjust="spacing" textLength="156.3926" x="283.74" y="274.3667">CANDIDATE_PROFILES</text><line style="stroke:#181818;stroke-width:0.5;" x1="255.74" x2="442.1326" y1="285.52" y2="285.52"/><text fill="#000000" font-family="sans-serif" font-size="14" lengthAdjust="spacing" text-decoration="underline" textLength="19.7764" x="260.74" y="302.5151">_id</text><text fill="#000000" font-family="sans-serif" font-size="14" lengthAdjust="spacing" textLength="67.7783" x="284.9666" y="302.5151">: ObjectId</text><text fill="#000000" font-family="sans-serif" font-size="14" font-style="italic" lengthAdjust="spacing" textLength="50.3125" x="260.74" y="318.812">user_id</text><text fill="#000000" font-family="sans-serif" font-size="14" lengthAdjust="spacing" textLength="67.7783" x="315.5027" y="318.812">: ObjectId</text><text fill="#000000" font-family="sans-serif" font-size="14" lengthAdjust="spacing" textLength="99.21" x="260.74" y="335.1089">phone : String</text><text fill="#000000" font-family="sans-serif" font-size="14" lengthAdjust="spacing" textLength="139.0361" x="260.74" y="351.4057">date_of_birth : Date</text><text fill="#000000" font-family="sans-serif" font-size="14" lengthAdjust="spacing" textLength="156.4746" x="260.74" y="367.7026">created_at : DateTime</text><line style="stroke:#181818;stroke-width:0.5;" x1="255.74" x2="442.1326" y1="375.0044" y2="375.0044"/></g><!--class ASSESSMENTS--><g class="entity" data-entity="ASSESSMENTS" data-source-line="30" data-uid="ent0005" id="entity_ASSESSMENTS"><rect fill="#F1F1F1" height="210.9688" rx="2.5" ry="2.5" style="stroke:#181818;stroke-width:0.5;" width="200.918" x="481.47" y="212.78"/><ellipse cx="526.2762" cy="228.78" fill="#ADD1B2" rx="11" ry="11" style="stroke:#181818;stroke-width:1;"/><path d="M530.3855,234.78 L522.6668,234.78 L522.6668,222.3894 L530.3855,222.3894 L530.3855,224.5456 L525.1199,224.5456 L525.1199,227.2175 L529.8855,227.2175 L529.8855,229.3737 L525.1199,229.3737 L525.1199,232.6237 L530.3855,232.6237 L530.3855,234.78 Z " fill="#000000"/><text fill="#000000" font-family="sans-serif" font-size="14" lengthAdjust="spacing" textLength="102.8057" x="546.7762" y="233.6267">ASSESSMENTS</text><line style="stroke:#181818;stroke-width:0.5;" x1="482.47" x2="681.388" y1="244.78" y2="244.78"/><text fill="#000000" font-family="sans-serif" font-size="14" lengthAdjust="spacing" text-decoration="underline" textLength="19.7764" x="487.47" y="261.7751">_id</text><text fill="#000000" font-family="sans-serif" font-size="14" lengthAdjust="spacing" textLength="67.7783" x="511.6966" y="261.7751">: ObjectId</text><text fill="#000000" font-family="sans-serif" font-size="14" font-style="italic" lengthAdjust="spacing" textLength="63.6426" x="487.47" y="278.072">admin_id</text><text fill="#000000" font-family="sans-serif" font-size="14" lengthAdjust="spacing" textLength="67.7783" x="555.5628" y="278.072">: ObjectId</text><text fill="#000000" font-family="sans-serif" font-size="14" lengthAdjust="spacing" textLength="95.1016" x="487.47" y="294.3689">name : String</text><text fill="#000000" font-family="sans-serif" font-size="14" lengthAdjust="spacing" textLength="133.2393" x="487.47" y="310.6657">description : String</text><text fill="#000000" font-family="sans-serif" font-size="14" lengthAdjust="spacing" textLength="86.6729" x="487.47" y="326.9626">type : String</text><text fill="#000000" font-family="sans-serif" font-size="14" lengthAdjust="spacing" textLength="98.417" x="487.47" y="343.2595">status : String</text><text fill="#000000" font-family="sans-serif" font-size="14" lengthAdjust="spacing" textLength="101.2402" x="487.47" y="359.5564">criteria : Array</text><text fill="#000000" font-family="sans-serif" font-size="14" lengthAdjust="spacing" textLength="156.4746" x="487.47" y="375.8532">created_at : DateTime</text><text fill="#000000" font-family="sans-serif" font-size="14" lengthAdjust="spacing" textLength="161.0547" x="487.47" y="392.1501">updated_at : DateTime</text><text fill="#000000" font-family="sans-serif" font-size="14" lengthAdjust="spacing" textLength="188.918" x="487.47" y="408.447">type_specific_data : Object</text><line style="stroke:#181818;stroke-width:0.5;" x1="482.47" x2="681.388" y1="415.7488" y2="415.7488"/></g><!--class ASSESSMENT_LINKS--><g class="entity" data-entity="ASSESSMENT_LINKS" data-source-line="43" data-uid="ent0006" id="entity_ASSESSMENT_LINKS"><rect fill="#F1F1F1" height="145.7813" rx="2.5" ry="2.5" style="stroke:#181818;stroke-width:0.5;" width="186.9863" x="490.44" y="532.64"/><ellipse cx="511.5594" cy="548.64" fill="#ADD1B2" rx="11" ry="11" style="stroke:#181818;stroke-width:1;"/><path d="M515.6688,554.64 L507.95,554.64 L507.95,542.2494 L515.6688,542.2494 L515.6688,544.4056 L510.4031,544.4056 L510.4031,547.0775 L515.1688,547.0775 L515.1688,549.2338 L510.4031,549.2338 L510.4031,552.4838 L515.6688,552.4838 L515.6688,554.64 Z " fill="#000000"/><text fill="#000000" font-family="sans-serif" font-size="14" lengthAdjust="spacing" textLength="141.3877" x="526.9192" y="553.4867">ASSESSMENT_LINKS</text><line style="stroke:#181818;stroke-width:0.5;" x1="491.44" x2="676.4263" y1="564.64" y2="564.64"/><text fill="#000000" font-family="sans-serif" font-size="14" lengthAdjust="spacing" text-decoration="underline" textLength="19.7764" x="496.44" y="581.6351">_id</text><text fill="#000000" font-family="sans-serif" font-size="14" lengthAdjust="spacing" textLength="67.7783" x="520.6666" y="581.6351">: ObjectId</text><text fill="#000000" font-family="sans-serif" font-size="14" font-style="italic" lengthAdjust="spacing" textLength="102.7578" x="496.44" y="597.932">assessment_id</text><text fill="#000000" font-family="sans-serif" font-size="14" lengthAdjust="spacing" textLength="67.7783" x="603.648" y="597.932">: ObjectId</text><text fill="#000000" font-family="sans-serif" font-size="14" lengthAdjust="spacing" textLength="136.0557" x="496.44" y="614.2289">token : String &#171;UK&#187;</text><text fill="#000000" font-family="sans-serif" font-size="14" lengthAdjust="spacing" textLength="152.5986" x="496.44" y="630.5257">expiration : DateTime</text><text fill="#000000" font-family="sans-serif" font-size="14" lengthAdjust="spacing" textLength="131.0449" x="496.44" y="646.8226">is_active : Boolean</text><text fill="#000000" font-family="sans-serif" font-size="14" lengthAdjust="spacing" textLength="156.4746" x="496.44" y="663.1195">created_at : DateTime</text><line style="stroke:#181818;stroke-width:0.5;" x1="491.44" x2="676.4263" y1="670.4213" y2="670.4213"/></g><!--class QUESTIONS--><g class="entity" data-entity="QUESTIONS" data-source-line="52" data-uid="ent0007" id="entity_QUESTIONS"><rect fill="#F1F1F1" height="178.375" rx="2.5" ry="2.5" style="stroke:#181818;stroke-width:0.5;" width="200.918" x="960.47" y="516.34"/><ellipse cx="1015.6497" cy="532.34" fill="#ADD1B2" rx="11" ry="11" style="stroke:#181818;stroke-width:1;"/><path d="M1019.7591,538.34 L1012.0403,538.34 L1012.0403,525.9494 L1019.7591,525.9494 L1019.7591,528.1056 L1014.4934,528.1056 L1014.4934,530.7775 L1019.2591,530.7775 L1019.2591,532.9338 L1014.4934,532.9338 L1014.4934,536.1838 L1019.7591,536.1838 L1019.7591,538.34 Z " fill="#000000"/><text fill="#000000" font-family="sans-serif" font-size="14" lengthAdjust="spacing" textLength="82.0586" x="1036.1497" y="537.1867">QUESTIONS</text><line style="stroke:#181818;stroke-width:0.5;" x1="961.47" x2="1160.388" y1="548.34" y2="548.34"/><text fill="#000000" font-family="sans-serif" font-size="14" lengthAdjust="spacing" text-decoration="underline" textLength="19.7764" x="966.47" y="565.3351">_id</text><text fill="#000000" font-family="sans-serif" font-size="14" lengthAdjust="spacing" textLength="67.7783" x="990.6966" y="565.3351">: ObjectId</text><text fill="#000000" font-family="sans-serif" font-size="14" lengthAdjust="spacing" textLength="86.6729" x="966.47" y="581.632">type : String</text><text fill="#000000" font-family="sans-serif" font-size="14" lengthAdjust="spacing" textLength="83.2754" x="966.47" y="597.9289">text : String</text><text fill="#000000" font-family="sans-serif" font-size="14" lengthAdjust="spacing" textLength="116.1563" x="966.47" y="614.2257">difficulty : String</text><text fill="#000000" font-family="sans-serif" font-size="14" lengthAdjust="spacing" textLength="93.3926" x="966.47" y="630.5226">topics : Array</text><text fill="#000000" font-family="sans-serif" font-size="14" lengthAdjust="spacing" textLength="75.1064" x="966.47" y="646.8195">points : Int</text><text fill="#000000" font-family="sans-serif" font-size="14" lengthAdjust="spacing" textLength="156.4746" x="966.47" y="663.1164">created_at : DateTime</text><text fill="#000000" font-family="sans-serif" font-size="14" lengthAdjust="spacing" textLength="188.918" x="966.47" y="679.4132">type_specific_data : Object</text><line style="stroke:#181818;stroke-width:0.5;" x1="961.47" x2="1160.388" y1="686.715" y2="686.715"/></g><!--class TEST_SESSIONS--><g class="entity" data-entity="TEST_SESSIONS" data-source-line="63" data-uid="ent0008" id="entity_TEST_SESSIONS"><rect fill="#F1F1F1" height="194.6719" rx="2.5" ry="2.5" style="stroke:#181818;stroke-width:0.5;" width="217.96" x="237.95" y="508.19"/><ellipse cx="286.7552" cy="524.19" fill="#ADD1B2" rx="11" ry="11" style="stroke:#181818;stroke-width:1;"/><path d="M290.8646,530.19 L283.1458,530.19 L283.1458,517.7994 L290.8646,517.7994 L290.8646,519.9556 L285.5989,519.9556 L285.5989,522.6275 L290.3646,522.6275 L290.3646,524.7838 L285.5989,524.7838 L285.5989,528.0338 L290.8646,528.0338 L290.8646,530.19 Z " fill="#000000"/><text fill="#000000" font-family="sans-serif" font-size="14" lengthAdjust="spacing" textLength="111.8496" x="307.2552" y="529.0367">TEST_SESSIONS</text><line style="stroke:#181818;stroke-width:0.5;" x1="238.95" x2="454.91" y1="540.19" y2="540.19"/><text fill="#000000" font-family="sans-serif" font-size="14" lengthAdjust="spacing" text-decoration="underline" textLength="19.7764" x="243.95" y="557.1851">_id</text><text fill="#000000" font-family="sans-serif" font-size="14" lengthAdjust="spacing" textLength="67.7783" x="268.1766" y="557.1851">: ObjectId</text><text fill="#000000" font-family="sans-serif" font-size="14" font-style="italic" lengthAdjust="spacing" textLength="102.7578" x="243.95" y="573.482">assessment_id</text><text fill="#000000" font-family="sans-serif" font-size="14" lengthAdjust="spacing" textLength="67.7783" x="351.158" y="573.482">: ObjectId</text><text fill="#000000" font-family="sans-serif" font-size="14" font-style="italic" lengthAdjust="spacing" textLength="89.2705" x="243.95" y="589.7789">candidate_id</text><text fill="#000000" font-family="sans-serif" font-size="14" lengthAdjust="spacing" textLength="67.7783" x="337.6707" y="589.7789">: ObjectId</text><text fill="#000000" font-family="sans-serif" font-size="14" lengthAdjust="spacing" textLength="98.417" x="243.95" y="606.0757">status : String</text><text fill="#000000" font-family="sans-serif" font-size="14" lengthAdjust="spacing" textLength="153.0088" x="243.95" y="622.3726">start_time : DateTime</text><text fill="#000000" font-family="sans-serif" font-size="14" lengthAdjust="spacing" textLength="146.7744" x="243.95" y="638.6695">end_time : DateTime</text><text fill="#000000" font-family="sans-serif" font-size="14" lengthAdjust="spacing" textLength="205.96" x="243.95" y="654.9664">time_remaining_seconds : Int</text><text fill="#000000" font-family="sans-serif" font-size="14" lengthAdjust="spacing" textLength="156.4746" x="243.95" y="671.2632">created_at : DateTime</text><text fill="#000000" font-family="sans-serif" font-size="14" lengthAdjust="spacing" textLength="161.0547" x="243.95" y="687.5601">updated_at : DateTime</text><line style="stroke:#181818;stroke-width:0.5;" x1="238.95" x2="454.91" y1="694.8619" y2="694.8619"/></g><!--class CANDIDATE_ANSWERS--><g class="entity" data-entity="CANDIDATE_ANSWERS" data-source-line="75" data-uid="ent0009" id="entity_CANDIDATE_ANSWERS"><rect fill="#F1F1F1" height="162.0781" rx="2.5" ry="2.5" style="stroke:#181818;stroke-width:0.5;" width="191.7285" x="608.07" y="787.31"/><ellipse cx="623.07" cy="803.31" fill="#ADD1B2" rx="11" ry="11" style="stroke:#181818;stroke-width:1;"/><path d="M627.1794,809.31 L619.4606,809.31 L619.4606,796.9194 L627.1794,796.9194 L627.1794,799.0756 L621.9138,799.0756 L621.9138,801.7475 L626.6794,801.7475 L626.6794,803.9038 L621.9138,803.9038 L621.9138,807.1538 L627.1794,807.1538 L627.1794,809.31 Z " fill="#000000"/><text fill="#000000" font-family="sans-serif" font-size="14" lengthAdjust="spacing" textLength="159.7285" x="637.07" y="808.1567">CANDIDATE_ANSWERS</text><line style="stroke:#181818;stroke-width:0.5;" x1="609.07" x2="798.7985" y1="819.31" y2="819.31"/><text fill="#000000" font-family="sans-serif" font-size="14" lengthAdjust="spacing" text-decoration="underline" textLength="19.7764" x="614.07" y="836.3051">_id</text><text fill="#000000" font-family="sans-serif" font-size="14" lengthAdjust="spacing" textLength="67.7783" x="638.2966" y="836.3051">: ObjectId</text><text fill="#000000" font-family="sans-serif" font-size="14" font-style="italic" lengthAdjust="spacing" textLength="71.5996" x="614.07" y="852.602">session_id</text><text fill="#000000" font-family="sans-serif" font-size="14" lengthAdjust="spacing" textLength="67.7783" x="690.1198" y="852.602">: ObjectId</text><text fill="#000000" font-family="sans-serif" font-size="14" font-style="italic" lengthAdjust="spacing" textLength="80.2607" x="614.07" y="868.8989">question_id</text><text fill="#000000" font-family="sans-serif" font-size="14" lengthAdjust="spacing" textLength="67.7783" x="698.7809" y="868.8989">: ObjectId</text><text fill="#000000" font-family="sans-serif" font-size="14" lengthAdjust="spacing" textLength="109.7783" x="614.07" y="885.1957">answer : Object</text><text fill="#000000" font-family="sans-serif" font-size="14" lengthAdjust="spacing" textLength="86.1191" x="614.07" y="901.4926">score : Float</text><text fill="#000000" font-family="sans-serif" font-size="14" lengthAdjust="spacing" textLength="138.0654" x="614.07" y="917.7895">is_correct : Boolean</text><text fill="#000000" font-family="sans-serif" font-size="14" lengthAdjust="spacing" textLength="170.9053" x="614.07" y="934.0864">answered_at : DateTime</text><line style="stroke:#181818;stroke-width:0.5;" x1="609.07" x2="798.7985" y1="941.3881" y2="941.3881"/></g><!--class ASSESSMENT_RESULTS--><g class="entity" data-entity="ASSESSMENT_RESULTS" data-source-line="85" data-uid="ent0010" id="entity_ASSESSMENT_RESULTS"><rect fill="#F1F1F1" height="243.5625" rx="2.5" ry="2.5" style="stroke:#181818;stroke-width:0.5;" width="195.8643" x="7" y="483.75"/><ellipse cx="22" cy="499.75" fill="#ADD1B2" rx="11" ry="11" style="stroke:#181818;stroke-width:1;"/><path d="M26.1094,505.75 L18.3906,505.75 L18.3906,493.3594 L26.1094,493.3594 L26.1094,495.5156 L20.8438,495.5156 L20.8438,498.1875 L25.6094,498.1875 L25.6094,500.3438 L20.8438,500.3438 L20.8438,503.5938 L26.1094,503.5938 L26.1094,505.75 Z " fill="#000000"/><text fill="#000000" font-family="sans-serif" font-size="14" lengthAdjust="spacing" textLength="163.8643" x="36" y="504.5967">ASSESSMENT_RESULTS</text><line style="stroke:#181818;stroke-width:0.5;" x1="8" x2="201.8643" y1="515.75" y2="515.75"/><text fill="#000000" font-family="sans-serif" font-size="14" lengthAdjust="spacing" text-decoration="underline" textLength="19.7764" x="13" y="532.7451">_id</text><text fill="#000000" font-family="sans-serif" font-size="14" lengthAdjust="spacing" textLength="67.7783" x="37.2266" y="532.7451">: ObjectId</text><text fill="#000000" font-family="sans-serif" font-size="14" font-style="italic" lengthAdjust="spacing" textLength="102.7578" x="13" y="549.042">assessment_id</text><text fill="#000000" font-family="sans-serif" font-size="14" lengthAdjust="spacing" textLength="67.7783" x="120.208" y="549.042">: ObjectId</text><text fill="#000000" font-family="sans-serif" font-size="14" font-style="italic" lengthAdjust="spacing" textLength="89.2705" x="13" y="565.3389">candidate_id</text><text fill="#000000" font-family="sans-serif" font-size="14" lengthAdjust="spacing" textLength="67.7783" x="106.7207" y="565.3389">: ObjectId</text><text fill="#000000" font-family="sans-serif" font-size="14" lengthAdjust="spacing" textLength="170.502" x="13" y="581.6357">candidate_email : String</text><text fill="#000000" font-family="sans-serif" font-size="14" lengthAdjust="spacing" textLength="171.5957" x="13" y="597.9326">candidate_name : String</text><text fill="#000000" font-family="sans-serif" font-size="14" lengthAdjust="spacing" textLength="125.1318" x="13" y="614.2295">total_score : Float</text><text fill="#000000" font-family="sans-serif" font-size="14" lengthAdjust="spacing" textLength="128.2012" x="13" y="630.5264">percentage : Float</text><text fill="#000000" font-family="sans-serif" font-size="14" lengthAdjust="spacing" textLength="119.8613" x="13" y="646.8232">passed : Boolean</text><text fill="#000000" font-family="sans-serif" font-size="14" lengthAdjust="spacing" textLength="173.8994" x="13" y="663.1201">submitted_at : DateTime</text><text fill="#000000" font-family="sans-serif" font-size="14" lengthAdjust="spacing" textLength="145.7627" x="13" y="679.417">parsed_data : Object</text><text fill="#000000" font-family="sans-serif" font-size="14" lengthAdjust="spacing" textLength="174.2139" x="13" y="695.7139">score_breakdown : Array</text><text fill="#000000" font-family="sans-serif" font-size="14" lengthAdjust="spacing" textLength="156.4746" x="13" y="712.0107">created_at : DateTime</text><line style="stroke:#181818;stroke-width:0.5;" x1="8" x2="201.8643" y1="719.3125" y2="719.3125"/></g><!--class QUESTION_BANKS--><g class="entity" data-entity="QUESTION_BANKS" data-source-line="100" data-uid="ent0011" id="entity_QUESTION_BANKS"><rect fill="#F1F1F1" height="162.0781" rx="2.5" ry="2.5" style="stroke:#181818;stroke-width:0.5;" width="168.4746" x="847.69" y="237.23"/><ellipse cx="866.5515" cy="253.23" fill="#ADD1B2" rx="11" ry="11" style="stroke:#181818;stroke-width:1;"/><path d="M870.6608,259.23 L862.9421,259.23 L862.9421,246.8394 L870.6608,246.8394 L870.6608,248.9956 L865.3952,248.9956 L865.3952,251.6675 L870.1608,251.6675 L870.1608,253.8238 L865.3952,253.8238 L865.3952,257.0738 L870.6608,257.0738 L870.6608,259.23 Z " fill="#000000"/><text fill="#000000" font-family="sans-serif" font-size="14" lengthAdjust="spacing" textLength="127.8936" x="881.4096" y="258.0767">QUESTION_BANKS</text><line style="stroke:#181818;stroke-width:0.5;" x1="848.69" x2="1015.1646" y1="269.23" y2="269.23"/><text fill="#000000" font-family="sans-serif" font-size="14" lengthAdjust="spacing" text-decoration="underline" textLength="19.7764" x="853.69" y="286.2251">_id</text><text fill="#000000" font-family="sans-serif" font-size="14" lengthAdjust="spacing" textLength="67.7783" x="877.9166" y="286.2251">: ObjectId</text><text fill="#000000" font-family="sans-serif" font-size="14" lengthAdjust="spacing" textLength="95.1016" x="853.69" y="302.522">name : String</text><text fill="#000000" font-family="sans-serif" font-size="14" lengthAdjust="spacing" textLength="133.2393" x="853.69" y="318.8189">description : String</text><text fill="#000000" font-family="sans-serif" font-size="14" lengthAdjust="spacing" textLength="123.3477" x="853.69" y="335.1157">topic_tags : Array</text><text fill="#000000" font-family="sans-serif" font-size="14" lengthAdjust="spacing" textLength="139.125" x="853.69" y="351.4126">question_ids : Array</text><text fill="#000000" font-family="sans-serif" font-size="14" font-style="italic" lengthAdjust="spacing" textLength="77.8066" x="853.69" y="367.7095">created_by</text><text fill="#000000" font-family="sans-serif" font-size="14" lengthAdjust="spacing" textLength="67.7783" x="935.9468" y="367.7095">: ObjectId</text><text fill="#000000" font-family="sans-serif" font-size="14" lengthAdjust="spacing" textLength="156.4746" x="853.69" y="384.0064">created_at : DateTime</text><line style="stroke:#181818;stroke-width:0.5;" x1="848.69" x2="1015.1646" y1="391.3081" y2="391.3081"/></g><!--class ASSESSMENT_STATISTICS--><g class="entity" data-entity="ASSESSMENT_STATISTICS" data-source-line="110" data-uid="ent0012" id="entity_ASSESSMENT_STATISTICS"><rect fill="#F1F1F1" height="162.0781" rx="2.5" ry="2.5" style="stroke:#181818;stroke-width:0.5;" width="212.8447" x="712.51" y="524.49"/><ellipse cx="727.51" cy="540.49" fill="#ADD1B2" rx="11" ry="11" style="stroke:#181818;stroke-width:1;"/><path d="M731.6194,546.49 L723.9006,546.49 L723.9006,534.0994 L731.6194,534.0994 L731.6194,536.2556 L726.3538,536.2556 L726.3538,538.9275 L731.1194,538.9275 L731.1194,541.0838 L726.3538,541.0838 L726.3538,544.3338 L731.6194,544.3338 L731.6194,546.49 Z " fill="#000000"/><text fill="#000000" font-family="sans-serif" font-size="14" lengthAdjust="spacing" textLength="180.8447" x="741.51" y="545.3367">ASSESSMENT_STATISTICS</text><line style="stroke:#181818;stroke-width:0.5;" x1="713.51" x2="924.3547" y1="556.49" y2="556.49"/><text fill="#000000" font-family="sans-serif" font-size="14" lengthAdjust="spacing" text-decoration="underline" textLength="19.7764" x="718.51" y="573.4851">_id</text><text fill="#000000" font-family="sans-serif" font-size="14" lengthAdjust="spacing" textLength="67.7783" x="742.7366" y="573.4851">: ObjectId</text><text fill="#000000" font-family="sans-serif" font-size="14" font-style="italic" lengthAdjust="spacing" textLength="102.7578" x="718.51" y="589.782">assessment_id</text><text fill="#000000" font-family="sans-serif" font-size="14" lengthAdjust="spacing" textLength="67.7783" x="825.718" y="589.782">: ObjectId</text><text fill="#000000" font-family="sans-serif" font-size="14" lengthAdjust="spacing" textLength="156.9121" x="718.51" y="606.0789">total_submissions : Int</text><text fill="#000000" font-family="sans-serif" font-size="14" lengthAdjust="spacing" textLength="150.4316" x="718.51" y="622.3757">average_score : Float</text><text fill="#000000" font-family="sans-serif" font-size="14" lengthAdjust="spacing" textLength="115.6846" x="718.51" y="638.6726">pass_rate : Float</text><text fill="#000000" font-family="sans-serif" font-size="14" lengthAdjust="spacing" textLength="183.9209" x="718.51" y="654.9695">score_distribution : Object</text><text fill="#000000" font-family="sans-serif" font-size="14" lengthAdjust="spacing" textLength="172.2383" x="718.51" y="671.2664">last_updated : DateTime</text><line style="stroke:#181818;stroke-width:0.5;" x1="713.51" x2="924.3547" y1="678.5681" y2="678.5681"/></g><!--link USERS to ADMIN_PROFILES--><g class="link" data-entity-1="USERS" data-entity-2="ADMIN_PROFILES" data-source-line="120" data-uid="lnk13" id="link_USERS_ADMIN_PROFILES"><path codeLine="120" d="M370.2296,128.7291 C326.4396,152.3591 280.65,179.62 236.93,212.78 C221,224.86 217.9671,226.6666 203.3371,240.7066" fill="none" id="USERS-ADMIN_PROFILES" style="stroke:#181818;stroke-width:1;"/><line style="stroke:#181818;stroke-width:1;" x1="371.8503" x2="375.6494" y1="123.3094" y2="130.3497"/><line style="stroke:#181818;stroke-width:1;" x1="369.2101" x2="373.0092" y1="124.7341" y2="131.7744"/><line style="stroke:#181818;stroke-width:1;" x1="370.2296" x2="377.27" y1="128.7291" y2="124.93"/><line style="stroke:#181818;stroke-width:1;" x1="196.122" x2="194.5045" y1="247.6307" y2="257.499"/><line style="stroke:#181818;stroke-width:1;" x1="196.122" x2="186.1955" y1="247.6307" y2="248.841"/><line style="stroke:#181818;stroke-width:1;" x1="196.122" x2="190.35" y1="247.6307" y2="253.17"/><ellipse cx="200.4511" cy="243.4763" fill="none" rx="4" ry="4" style="stroke:#181818;stroke-width:1;"/></g><!--link USERS to CANDIDATE_PROFILES--><g class="link" data-entity-1="USERS" data-entity-2="CANDIDATE_PROFILES" data-source-line="121" data-uid="lnk14" id="link_USERS_CANDIDATE_PROFILES"><path codeLine="121" d="M425.9755,160.2718 C410.3155,192.1818 403.5084,206.0401 388.3384,236.9601" fill="none" id="USERS-CANDIDATE_PROFILES" style="stroke:#181818;stroke-width:1;"/><line style="stroke:#181818;stroke-width:1;" x1="424.1469" x2="431.3286" y1="154.9186" y2="158.4431"/><line style="stroke:#181818;stroke-width:1;" x1="422.8252" x2="430.007" y1="157.6118" y2="161.1363"/><line style="stroke:#181818;stroke-width:1;" x1="425.9755" x2="429.5" y1="160.2718" y2="153.09"/><line style="stroke:#181818;stroke-width:1;" x1="383.9337" x2="385.7966" y1="245.9378" y2="255.7628"/><line style="stroke:#181818;stroke-width:1;" x1="383.9337" x2="375.0234" y1="245.9378" y2="250.4772"/><line style="stroke:#181818;stroke-width:1;" x1="383.9337" x2="380.41" y1="245.9378" y2="253.12"/><ellipse cx="386.5765" cy="240.5512" fill="none" rx="4" ry="4" style="stroke:#181818;stroke-width:1;"/></g><!--link USERS to ASSESSMENTS--><g class="link" data-entity-1="USERS" data-entity-2="ASSESSMENTS" data-source-line="122" data-uid="lnk15" id="link_USERS_ASSESSMENTS"><path codeLine="122" d="M504.2201,160.2591 C513.5001,178.9991 512.1378,176.2567 522.0578,196.3067" fill="none" id="USERS-ASSESSMENTS" style="stroke:#181818;stroke-width:1;"/><line style="stroke:#181818;stroke-width:1;" x1="498.8605" x2="506.0296" y1="158.4496" y2="154.8995"/><line style="stroke:#181818;stroke-width:1;" x1="500.1918" x2="507.3609" y1="161.1381" y2="157.5879"/><line style="stroke:#181818;stroke-width:1;" x1="504.2201" x2="500.67" y1="160.2591" y2="153.09"/><line style="stroke:#181818;stroke-width:1;" x1="526.4924" x2="535.4178" y1="205.2696" y2="209.7793"/><line style="stroke:#181818;stroke-width:1;" x1="526.4924" x2="524.6622" y1="205.2696" y2="215.1007"/><line style="stroke:#181818;stroke-width:1;" x1="526.4924" x2="530.04" y1="205.2696" y2="212.44"/><ellipse cx="523.8316" cy="199.8918" fill="none" rx="4" ry="4" style="stroke:#181818;stroke-width:1;"/></g><!--link ASSESSMENTS to ASSESSMENT_LINKS--><g class="link" data-entity-1="ASSESSMENTS" data-entity-2="ASSESSMENT_LINKS" data-source-line="123" data-uid="lnk16" id="link_ASSESSMENTS_ASSESSMENT_LINKS"><path codeLine="123" d="M582.7254,431.8698 C582.9754,467.9598 583.0742,481.5604 583.3042,514.4704" fill="none" id="ASSESSMENTS-ASSESSMENT_LINKS" style="stroke:#181818;stroke-width:1;"/><line style="stroke:#181818;stroke-width:1;" x1="578.6978" x2="586.6976" y1="427.8976" y2="427.8422"/><line style="stroke:#181818;stroke-width:1;" x1="578.7186" x2="586.7184" y1="430.8975" y2="430.8421"/><line style="stroke:#181818;stroke-width:1;" x1="582.7254" x2="582.67" y1="431.8698" y2="423.87"/><line style="stroke:#181818;stroke-width:1;" x1="583.3741" x2="589.4299" y1="524.4702" y2="532.4281"/><line style="stroke:#181818;stroke-width:1;" x1="583.3741" x2="577.4301" y1="524.4702" y2="532.5119"/><line style="stroke:#181818;stroke-width:1;" x1="583.3741" x2="583.43" y1="524.4702" y2="532.47"/><ellipse cx="583.3322" cy="518.4703" fill="none" rx="4" ry="4" style="stroke:#181818;stroke-width:1;"/></g><!--link ASSESSMENTS to ASSESSMENT_RESULTS--><g class="link" data-entity-1="ASSESSMENTS" data-entity-2="ASSESSMENT_RESULTS" data-source-line="124" data-uid="lnk17" id="link_ASSESSMENTS_ASSESSMENT_RESULTS"><path codeLine="124" d="M474.3008,416.3474 C467.7108,420.6274 467.71,420.23 460.93,423.75 C363.34,474.39 316.06,428.61 220.93,483.75 C214.9,487.25 223.5196,480.5524 217.7396,484.7624" fill="none" id="ASSESSMENTS-ASSESSMENT_RESULTS" style="stroke:#181818;stroke-width:1;"/><line style="stroke:#181818;stroke-width:1;" x1="475.4767" x2="479.8341" y1="410.8141" y2="417.5233"/><line style="stroke:#181818;stroke-width:1;" x1="472.9608" x2="477.3182" y1="412.4481" y2="419.1573"/><line style="stroke:#181818;stroke-width:1;" x1="474.3008" x2="481.01" y1="416.3474" y2="411.99"/><line style="stroke:#181818;stroke-width:1;" x1="209.6565" x2="206.7225" y1="490.65" y2="500.2099"/><line style="stroke:#181818;stroke-width:1;" x1="209.6565" x2="199.6575" y1="490.65" y2="490.5101"/><line style="stroke:#181818;stroke-width:1;" x1="209.6565" x2="203.19" y1="490.65" y2="495.36"/><ellipse cx="214.5064" cy="487.1174" fill="none" rx="4" ry="4" style="stroke:#181818;stroke-width:1;"/></g><!--link ASSESSMENTS to TEST_SESSIONS--><g class="link" data-entity-1="ASSESSMENTS" data-entity-2="TEST_SESSIONS" data-source-line="125" data-uid="lnk18" id="link_ASSESSMENTS_TEST_SESSIONS"><path codeLine="125" d="M490.6737,430.0449 C468.0137,457.5549 460.2049,467.027 437.9049,494.097" fill="none" id="ASSESSMENTS-TEST_SESSIONS" style="stroke:#181818;stroke-width:1;"/><line style="stroke:#181818;stroke-width:1;" x1="490.1294" x2="496.3043" y1="424.4143" y2="429.5006"/><line style="stroke:#181818;stroke-width:1;" x1="488.222" x2="494.397" y1="426.7299" y2="431.8162"/><line style="stroke:#181818;stroke-width:1;" x1="490.6737" x2="495.76" y1="430.0449" y2="423.87"/><line style="stroke:#181818;stroke-width:1;" x1="431.5466" x2="431.091" y1="501.8153" y2="511.805"/><line style="stroke:#181818;stroke-width:1;" x1="431.5466" x2="421.829" y1="501.8153" y2="504.175"/><line style="stroke:#181818;stroke-width:1;" x1="431.5466" x2="426.46" y1="501.8153" y2="507.99"/><ellipse cx="435.3616" cy="497.1844" fill="none" rx="4" ry="4" style="stroke:#181818;stroke-width:1;"/></g><!--link ASSESSMENTS to ASSESSMENT_STATISTICS--><g class="link" data-entity-1="ASSESSMENTS" data-entity-2="ASSESSMENT_STATISTICS" data-source-line="126" data-uid="lnk19" id="link_ASSESSMENTS_ASSESSMENT_STATISTICS"><path codeLine="126" d="M673.9529,430.0229 C701.4329,463.0929 714.7364,479.1156 740.5864,510.2256" fill="none" id="ASSESSMENTS-ASSESSMENT_STATISTICS" style="stroke:#181818;stroke-width:1;"/><line style="stroke:#181818;stroke-width:1;" x1="668.32" x2="674.4729" y1="429.5029" y2="424.39"/><line style="stroke:#181818;stroke-width:1;" x1="670.2373" x2="676.3902" y1="431.8102" y2="426.6974"/><line style="stroke:#181818;stroke-width:1;" x1="673.9529" x2="668.84" y1="430.0229" y2="423.87"/><line style="stroke:#181818;stroke-width:1;" x1="746.9773" x2="756.7048" y1="517.9169" y2="520.2355"/><line style="stroke:#181818;stroke-width:1;" x1="746.9773" x2="747.4752" y1="517.9169" y2="527.9045"/><line style="stroke:#181818;stroke-width:1;" x1="746.9773" x2="752.09" y1="517.9169" y2="524.07"/><ellipse cx="743.1427" cy="513.3021" fill="none" rx="4" ry="4" style="stroke:#181818;stroke-width:1;"/></g><!--link ASSESSMENTS to QUESTIONS--><g class="link" data-entity-1="ASSESSMENTS" data-entity-2="QUESTIONS" data-source-line="127" data-uid="lnk20" id="link_ASSESSMENTS_QUESTIONS"><path codeLine="127" d="M699.3359,367.2018 C789.9559,404.9518 898.76,452.73 942.93,483.75 C956.49,493.27 956.6482,492.1913 969.1682,503.8713" fill="none" id="ASSESSMENTS-QUESTIONS" style="stroke:#181818;stroke-width:1;"/><line style="stroke:#181818;stroke-width:1;" x1="690.1049" x2="680.4127" y1="363.3563" y2="365.8186"/><line style="stroke:#181818;stroke-width:1;" x1="690.1049" x2="685.0273" y1="363.3563" y2="354.7414"/><line style="stroke:#181818;stroke-width:1;" x1="690.1049" x2="682.72" y1="363.3563" y2="360.28"/><ellipse cx="695.6435" cy="365.6636" fill="none" rx="4" ry="4" style="stroke:#181818;stroke-width:1;"/><line style="stroke:#181818;stroke-width:1;" x1="976.4803" x2="986.4229" y1="510.6928" y2="511.7627"/><line style="stroke:#181818;stroke-width:1;" x1="976.4803" x2="978.2371" y1="510.6928" y2="520.5373"/><line style="stroke:#181818;stroke-width:1;" x1="976.4803" x2="982.33" y1="510.6928" y2="516.15"/><ellipse cx="972.0931" cy="506.5999" fill="none" rx="4" ry="4" style="stroke:#181818;stroke-width:1;"/></g><!--link CANDIDATE_PROFILES to TEST_SESSIONS--><g class="link" data-entity-1="CANDIDATE_PROFILES" data-entity-2="TEST_SESSIONS" data-source-line="128" data-uid="lnk21" id="link_CANDIDATE_PROFILES_TEST_SESSIONS"><path codeLine="128" d="M348.4255,391.2798 C348.1755,427.9998 348.027,448.8204 347.737,489.9304" fill="none" id="CANDIDATE_PROFILES-TEST_SESSIONS" style="stroke:#181818;stroke-width:1;"/><line style="stroke:#181818;stroke-width:1;" x1="344.4529" x2="352.4527" y1="387.2527" y2="387.3071"/><line style="stroke:#181818;stroke-width:1;" x1="344.4324" x2="352.4323" y1="390.2526" y2="390.3071"/><line style="stroke:#181818;stroke-width:1;" x1="348.4255" x2="348.48" y1="391.2798" y2="383.28"/><line style="stroke:#181818;stroke-width:1;" x1="347.6664" x2="353.6099" y1="499.9302" y2="507.9723"/><line style="stroke:#181818;stroke-width:1;" x1="347.6664" x2="341.6101" y1="499.9302" y2="507.8877"/><line style="stroke:#181818;stroke-width:1;" x1="347.6664" x2="347.61" y1="499.9302" y2="507.93"/><ellipse cx="347.7088" cy="493.9303" fill="none" rx="4" ry="4" style="stroke:#181818;stroke-width:1;"/></g><!--link CANDIDATE_PROFILES to ASSESSMENT_RESULTS--><g class="link" data-entity-1="CANDIDATE_PROFILES" data-entity-2="ASSESSMENT_RESULTS" data-source-line="129" data-uid="lnk22" id="link_CANDIDATE_PROFILES_ASSESSMENT_RESULTS"><path codeLine="129" d="M288.9712,389.3605 C262.1412,420.7405 245.8912,439.7422 214.8712,476.0022" fill="none" id="CANDIDATE_PROFILES-ASSESSMENT_RESULTS" style="stroke:#181818;stroke-width:1;"/><line style="stroke:#181818;stroke-width:1;" x1="288.5303" x2="294.6108" y1="383.7208" y2="388.9197"/><line style="stroke:#181818;stroke-width:1;" x1="286.5808" x2="292.6613" y1="386.001" y2="391.1998"/><line style="stroke:#181818;stroke-width:1;" x1="288.9712" x2="294.17" y1="389.3605" y2="383.28"/><line style="stroke:#181818;stroke-width:1;" x1="208.3705" x2="207.7293" y1="483.601" y2="493.5804"/><line style="stroke:#181818;stroke-width:1;" x1="208.3705" x2="198.6107" y1="483.601" y2="485.7796"/><line style="stroke:#181818;stroke-width:1;" x1="208.3705" x2="203.17" y1="483.601" y2="489.68"/><ellipse cx="212.2709" cy="479.0417" fill="none" rx="4" ry="4" style="stroke:#181818;stroke-width:1;"/></g><!--link TEST_SESSIONS to CANDIDATE_ANSWERS--><g class="link" data-entity-1="TEST_SESSIONS" data-entity-2="CANDIDATE_ANSWERS" data-source-line="130" data-uid="lnk23" id="link_TEST_SESSIONS_CANDIDATE_ANSWERS"><path codeLine="130" d="M449.796,708.5718 C459.416,716.9718 463.2,719.84 472.93,727.31 C514.97,759.58 549.3232,781.6372 591.9832,806.2772" fill="none" id="TEST_SESSIONS-CANDIDATE_ANSWERS" style="stroke:#181818;stroke-width:1;"/><line style="stroke:#181818;stroke-width:1;" x1="444.1521" x2="449.4139" y1="708.9539" y2="702.9279"/><line style="stroke:#181818;stroke-width:1;" x1="446.4119" x2="451.6737" y1="710.9271" y2="704.9011"/><line style="stroke:#181818;stroke-width:1;" x1="449.796" x2="443.77" y1="708.5718" y2="703.31"/><line style="stroke:#181818;stroke-width:1;" x1="600.6425" x2="610.5709" y1="811.2788" y2="810.0844"/><line style="stroke:#181818;stroke-width:1;" x1="600.6425" x2="604.5691" y1="811.2788" y2="820.4756"/><line style="stroke:#181818;stroke-width:1;" x1="600.6425" x2="607.57" y1="811.2788" y2="815.28"/><ellipse cx="595.4469" cy="808.2778" fill="none" rx="4" ry="4" style="stroke:#181818;stroke-width:1;"/></g><!--link QUESTIONS to CANDIDATE_ANSWERS--><g class="link" data-entity-1="QUESTIONS" data-entity-2="CANDIDATE_ANSWERS" data-source-line="131" data-uid="lnk24" id="link_QUESTIONS_CANDIDATE_ANSWERS"><path codeLine="131" d="M974.2948,700.4451 C962.2948,711.8651 955.52,717.47 942.93,727.31 C898.79,761.82 861.1163,785.2718 815.9563,810.0118" fill="none" id="QUESTIONS-CANDIDATE_ANSWERS" style="stroke:#181818;stroke-width:1;"/><line style="stroke:#181818;stroke-width:1;" x1="974.4349" x2="979.95" y1="694.79" y2="700.5851"/><line style="stroke:#181818;stroke-width:1;" x1="972.2617" x2="977.7768" y1="696.8581" y2="702.6533"/><line style="stroke:#181818;stroke-width:1;" x1="974.2948" x2="980.09" y1="700.4451" y2="694.93"/><line style="stroke:#181818;stroke-width:1;" x1="807.1861" x2="803.0527" y1="814.8163" y2="823.9221"/><line style="stroke:#181818;stroke-width:1;" x1="807.1861" x2="797.2873" y1="814.8163" y2="813.3979"/><line style="stroke:#181818;stroke-width:1;" x1="807.1861" x2="800.17" y1="814.8163" y2="818.66"/><ellipse cx="812.4483" cy="811.9336" fill="none" rx="4" ry="4" style="stroke:#181818;stroke-width:1;"/></g><!--link QUESTION_BANKS to QUESTIONS--><g class="link" data-entity-1="QUESTION_BANKS" data-entity-2="QUESTIONS" data-source-line="132" data-uid="lnk25" id="link_QUESTION_BANKS_QUESTIONS"><path codeLine="132" d="M975.6257,415.8914 C992.0157,452.1414 996.6141,462.2986 1013.4341,499.4986" fill="none" id="QUESTION_BANKS-QUESTIONS" style="stroke:#181818;stroke-width:1;"/><line style="stroke:#181818;stroke-width:1;" x1="971.5059" x2="962.7429" y1="406.7795" y2="401.9619"/><line style="stroke:#181818;stroke-width:1;" x1="971.5059" x2="973.6771" y1="406.7795" y2="397.0181"/><line style="stroke:#181818;stroke-width:1;" x1="971.5059" x2="968.21" y1="406.7795" y2="399.49"/><ellipse cx="973.9778" cy="412.2467" fill="none" rx="4" ry="4" style="stroke:#181818;stroke-width:1;"/><line style="stroke:#181818;stroke-width:1;" x1="1017.5541" x2="1026.3171" y1="508.6105" y2="513.428"/><line style="stroke:#181818;stroke-width:1;" x1="1017.5541" x2="1015.3829" y1="508.6105" y2="518.372"/><line style="stroke:#181818;stroke-width:1;" x1="1017.5541" x2="1020.85" y1="508.6105" y2="515.9"/><ellipse cx="1015.0821" cy="503.1434" fill="none" rx="4" ry="4" style="stroke:#181818;stroke-width:1;"/></g><!--link USERS to QUESTION_BANKS--><g class="link" data-entity-1="USERS" data-entity-2="QUESTION_BANKS" data-source-line="133" data-uid="lnk26" id="link_USERS_QUESTION_BANKS"><path codeLine="133" d="M559.9077,128.9628 C644.3277,171.6928 747.8406,224.0801 831.1806,266.2701" fill="none" id="USERS-QUESTION_BANKS" style="stroke:#181818;stroke-width:1;"/><line style="stroke:#181818;stroke-width:1;" x1="554.5325" x2="558.1453" y1="130.7253" y2="123.5875"/><line style="stroke:#181818;stroke-width:1;" x1="557.2091" x2="560.8219" y1="132.0801" y2="124.9424"/><line style="stroke:#181818;stroke-width:1;" x1="559.9077" x2="552.77" y1="128.9628" y2="125.35"/><line style="stroke:#181818;stroke-width:1;" x1="840.1025" x2="849.95" y1="270.7867" y2="269.0469"/><line style="stroke:#181818;stroke-width:1;" x1="840.1025" x2="844.53" y1="270.7867" y2="279.7531"/><line style="stroke:#181818;stroke-width:1;" x1="840.1025" x2="847.24" y1="270.7867" y2="274.4"/><ellipse cx="834.7493" cy="268.0767" fill="none" rx="4" ry="4" style="stroke:#181818;stroke-width:1;"/></g><!--SRC=[jLPTRvim57tFhw3QIokjsliKHQ8DaL3Ij2j4UxGSx3HUWytiIvkexN_VTK010uDCrV8KdNkDppttonUCRuJaNkpVB8BB_PN79GWuU7jlFFOkuwzVPZCVVrVUP3AwA7qVvjPnd4_suszv1SyAM5XOJ4QZyakhA7YClBUHPyyHmQwyxzxz-XTF86G8yfIA7K8HQ26VyDRL7A_ol8mQyweq8rjgjYSx6dB3DO53nkjWeZa5pWW5HAVuDnOfjyuPwy0_JkJywLsu90-FzxDm4VImnDYEzxOCYKepAWz4qjGX92JB3UZ3CCcApAs_d8PJFmu-GoZRAkamiG8GjI5heM5RNdm66J-AWYYw2vPnFmlAKY7RbgOUZ9j4Ymo4adMucKS357BZYYQ0Qq4HyxMcXtzETd49CHbFn4Oa17teYMjdm6GHBkS3KHl3ZKdnQDiCwfdBZehc-qneMYfGeoSCeGc85ol4ZL8xJkKP-Vcn2g8ul5_sy6oA2tmFJax41WN9T-1KAQXC9AOcTwQ410k44dhKFq_b65aJAtG_zG69qPnGoSInjblMTX4Xee60EDPaZJENh0Er2D5sC4ayJWnFb6J30WpDcggz_MNqitSeOdmsU2oLJjlld1leD59fNhckXCVG4wLjVBETeb1K6o8QZKwv5GVFcWVaCOXMY_X_PQyokQl1CJN72oYWEzACDUCwGGRqoG4jDUO4R_9rAg0hfndLwDoevb9KiiP2U6RgLGxEfdRRaXk_TyQSEpzjinACiDwmjVAemrRsajtwq1Jzx6r0ejYFGupXzZCJyfWjg_gnoAlUeYzSOxhQcSJF4HoUTQn80XEuPiKwBvKvfMX73P2o9Hin5I-Iz_VhQ_NMU06ujlP2RfojTkIelYzRvcAZ3FYKRTNbvKpDWSzK-N4SFzJHyRGsHXslZSxR_kxNmTqTxoqPoy4tgfRNe4lPA2twJY9Svpy0]--></g></svg>